<?xml version="1.0" encoding="UTF-8" standalone="no"?>
<svg
   xmlns:dc="http://purl.org/dc/elements/1.1/"
   xmlns:cc="http://creativecommons.org/ns#"
   xmlns:rdf="http://www.w3.org/1999/02/22-rdf-syntax-ns#"
   xmlns:svg="http://www.w3.org/2000/svg"
   xmlns="http://www.w3.org/2000/svg"
   id="svg24"
   version="1.1"
   height="128"
   width="128">
  <metadata
     id="metadata30">
    <rdf:RDF>
      <cc:Work
         rdf:about="">
        <dc:format>image/svg+xml</dc:format>
        <dc:type
           rdf:resource="http://purl.org/dc/dcmitype/StillImage" />
        <dc:title></dc:title>
      </cc:Work>
    </rdf:RDF>
  </metadata>
  <defs
     id="defs28" />
  <circle
     id="circle2"
     fill="#999999"
     r="54.49"
     cy="65.14"
     cx="64.65" />
  <circle
     id="circle4"
     fill="#4d4d4d"
     r="35.33"
     cy="65.14"
     cx="64.65" />
  <path
     id="path6"
     fill="#fff"
     d="M64.65 102.59c-20.66 0-37.46-16.8-37.46-37.46s16.8-37.46 37.46-37.46c20.65 0 37.46 16.81 37.46 37.46c0 20.66-16.81 37.46-37.46 37.46zm0-70.65c-18.3 0-33.19 14.89-33.19 33.19c0 18.3 14.89 33.19 33.19 33.19c18.3 0 33.19-14.89 33.19-33.19c0-18.3-14.88-33.19-33.19-33.19z" />
  <circle
     id="circle8"
     r="16.66"
     fill="#fff"
     cy="65.14"
     cx="64.65" />
  <text
     id="text34"
     y="73.220337"
     x="54.779659"
     style="font-style:normal;font-weight:normal;font-size:24px;line-height:1.25;font-family:sans-serif;letter-spacing:0px;word-spacing:0px;fill:#000000;fill-opacity:1;stroke:none"
     xml:space="preserve"><tspan
       y="73.220337"
       x="54.779659"
       id="tspan32">+</tspan></text>
</svg>
