<?xml version="1.0" encoding="UTF-8" standalone="no"?>
<svg
   xmlns:dc="http://purl.org/dc/elements/1.1/"
   xmlns:cc="http://creativecommons.org/ns#"
   xmlns:rdf="http://www.w3.org/1999/02/22-rdf-syntax-ns#"
   xmlns:svg="http://www.w3.org/2000/svg"
   xmlns="http://www.w3.org/2000/svg"
   version="1.1"
   id="Layer_1"
   x="0px"
   y="0px"
   width="48px"
   height="48px"
   viewBox="0 0 48 48"
   enable-background="new 0 0 48 48"
   xml:space="preserve"><metadata
   id="metadata27"><rdf:RDF><cc:Work
       rdf:about=""><dc:format>image/svg+xml</dc:format><dc:type
         rdf:resource="http://purl.org/dc/dcmitype/StillImage" /><dc:title></dc:title></cc:Work></rdf:RDF></metadata><defs
   id="defs25">
	
	
	
</defs>
<g
   id="g14"
   transform="matrix(0.76557559,0,0,0.76557559,8.3783281,16.45686)">
		<polygon
   style="fill:#666666"
   id="polygon2"
   points="3.5,31.135 3.617,13.494 8.951,15.291 8.951,23.189 12.373,24.332 12.373,16.443 18.078,18.365 17.961,36.006 " />
		<polygon
   style="fill:#666666"
   id="polygon4"
   points="20.078,18.418 35.74,14.244 35.623,31.902 19.961,36.075 " />
		<polygon
   style="fill:#666666"
   id="polygon6"
   points="14.273,14.973 27.789,10.468 34.053,12.625 19.117,16.604 " />
		<polygon
   style="fill:#666666"
   id="polygon8"
   points="11.127,13.913 5.389,11.979 20.623,8 24.678,9.396 " />
		<polygon
   style="fill:#ffffff"
   id="polygon10"
   points="11.623,16.19 12.373,16.443 12.373,24.332 8.951,23.189 8.951,15.291 9.623,15.518 " />
		<polygon
   style="fill:#ffffff"
   id="polygon12"
   points="14.273,14.973 11.127,13.913 24.678,9.396 27.789,10.468 " />
	</g><polygon
   style="fill:#333333"
   id="polygon16"
   points="38.904,32.232 42.5,32.232 35.576,23 28.652,32.232 31.98,32.232 31.98,39 38.904,39 "
   transform="translate(0,8)" /><path
   style="fill:#ffffff"
   id="path18"
   d="M 43.301,39.633 36.377,30.4 35.576,29.334 34.777,30.4 l -6.924,9.232 -1.201,1.6 h 2 2.328 V 47 48 h 1 6.924 1 v -1 -5.768 h 2.596 2 z M 38.904,47 H 31.98 V 40.232 H 28.652 L 35.576,31 42.5,40.232 h -3.596 z" />
<text
   xml:space="preserve"
   style="font-style:normal;font-weight:normal;font-size:21.81916618px;line-height:1.25;font-family:sans-serif;letter-spacing:0px;word-spacing:0px;fill:#000000;fill-opacity:1;stroke:none;stroke-width:0.90913177"
   x="8.514863"
   y="10.949153"
   id="text40"><tspan
     id="tspan38"
     x="8.514863"
     y="10.949153"
     style="font-style:normal;font-variant:normal;font-weight:normal;font-stretch:normal;font-size:12px;font-family:sans-serif;-inkscape-font-specification:sans-serif;stroke-width:0.90913177">PMML</tspan></text>

<text
   xml:space="preserve"
   style="font-style:normal;font-weight:normal;font-size:21.81916618px;line-height:1.25;font-family:sans-serif;letter-spacing:0px;word-spacing:0px;fill:#000000;fill-opacity:1;stroke:none;stroke-width:0.90913177"
   x="14.42205"
   y="21.53862"
   id="text40-6"><tspan
     id="tspan38-4"
     x="14.42205"
     y="21.53862"
     style="font-style:normal;font-variant:normal;font-weight:normal;font-stretch:normal;font-size:12px;font-family:sans-serif;-inkscape-font-specification:sans-serif;stroke-width:0.90913177">PFA</tspan></text>
</svg>