<?xml version="1.0" encoding="UTF-8" standalone="no"?>
<svg
   xmlns:dc="http://purl.org/dc/elements/1.1/"
   xmlns:cc="http://creativecommons.org/ns#"
   xmlns:rdf="http://www.w3.org/1999/02/22-rdf-syntax-ns#"
   xmlns:svg="http://www.w3.org/2000/svg"
   xmlns="http://www.w3.org/2000/svg"
   xml:space="preserve"
   enable-background="new 0 0 48 48"
   viewBox="0 0 48 48"
   height="48px"
   width="48px"
   y="0px"
   x="0px"
   id="Layer_1"
   version="1.1"><metadata
   id="metadata27"><rdf:RDF><cc:Work
       rdf:about=""><dc:format>image/svg+xml</dc:format><dc:type
         rdf:resource="http://purl.org/dc/dcmitype/StillImage" /><dc:title></dc:title></cc:Work></rdf:RDF></metadata><defs
   id="defs25">
	
	
	
</defs>
<g
   transform="matrix(0.76557559,0,0,0.76557559,8.3783281,12.45686)"
   id="g14">
		<polygon
   points="12.373,24.332 12.373,16.443 18.078,18.365 17.961,36.006 3.5,31.135 3.617,13.494 8.951,15.291 8.951,23.189 "
   id="polygon2"
   style="fill:#666666" />
		<polygon
   points="20.078,18.418 35.74,14.244 35.623,31.902 19.961,36.075 "
   id="polygon4"
   style="fill:#666666" />
		<polygon
   points="14.273,14.973 27.789,10.468 34.053,12.625 19.117,16.604 "
   id="polygon6"
   style="fill:#666666" />
		<polygon
   points="11.127,13.913 5.389,11.979 20.623,8 24.678,9.396 "
   id="polygon8"
   style="fill:#666666" />
		<polygon
   points="12.373,24.332 8.951,23.189 8.951,15.291 9.623,15.518 11.623,16.19 12.373,16.443 "
   id="polygon10"
   style="fill:#ffffff" />
		<polygon
   points="14.273,14.973 11.127,13.913 24.678,9.396 27.789,10.468 "
   id="polygon12"
   style="fill:#ffffff" />
	</g><polygon
   transform="translate(0,4)"
   points="28.652,32.232 31.98,32.232 31.98,39 38.904,39 38.904,32.232 42.5,32.232 35.576,23 "
   id="polygon16"
   style="fill:#333333" /><path
   d="M 43.301,35.633 36.377,26.4 35.576,25.334 34.777,26.4 l -6.924,9.232 -1.201,1.6 h 2 2.328 V 43 44 h 1 6.924 1 v -1 -5.768 h 2.596 2 z M 38.904,43 H 31.98 V 36.232 H 28.652 L 35.576,27 42.5,36.232 h -3.596 z"
   id="path18"
   style="fill:#ffffff" />
<text
   id="text40"
   y="15.254238"
   x="10.819948"
   style="font-style:normal;font-weight:normal;font-size:21.81916618px;line-height:1.25;font-family:sans-serif;letter-spacing:0px;word-spacing:0px;fill:#000000;fill-opacity:1;stroke:none;stroke-width:0.90913177"
   xml:space="preserve"><tspan
     style="font-style:normal;font-variant:normal;font-weight:normal;font-stretch:normal;font-size:14.54610825px;font-family:sans-serif;-inkscape-font-specification:sans-serif;stroke-width:0.90913177"
     y="15.254238"
     x="10.819948"
     id="tspan38">PFA</tspan></text>
</svg>